<svg width="20" height="30" viewBox="0 0 20 30" fill="none" xmlns="http://www.w3.org/2000/svg">
<g id="calendar-lines 1" clip-path="url(#clip0_141_5646)">
<path id="Vector" d="M12.6667 8.33333H12V7.66667C12 7.29867 11.702 7 11.3333 7C10.9647 7 10.6667 7.29867 10.6667 7.66667V8.33333H5.33333V7.66667C5.33333 7.29867 5.03533 7 4.66667 7C4.298 7 4 7.29867 4 7.66667V8.33333H3.33333C1.49533 8.33333 0 9.82867 0 11.6667V19.6667C0 21.5047 1.49533 23 3.33333 23H12.6667C14.5047 23 16 21.5047 16 19.6667V11.6667C16 9.82867 14.5047 8.33333 12.6667 8.33333ZM3.33333 9.66667H12.6667C13.7693 9.66667 14.6667 10.564 14.6667 11.6667V12.3333H1.33333V11.6667C1.33333 10.564 2.23067 9.66667 3.33333 9.66667ZM12.6667 21.6667H3.33333C2.23067 21.6667 1.33333 20.7693 1.33333 19.6667V13.6667H14.6667V19.6667C14.6667 20.7693 13.7693 21.6667 12.6667 21.6667ZM12.6667 16.3333C12.6667 16.7013 12.3687 17 12 17H4C3.63133 17 3.33333 16.7013 3.33333 16.3333C3.33333 15.9653 3.63133 15.6667 4 15.6667H12C12.3687 15.6667 12.6667 15.9653 12.6667 16.3333ZM8 19C8 19.368 7.702 19.6667 7.33333 19.6667H4C3.63133 19.6667 3.33333 19.368 3.33333 19C3.33333 18.632 3.63133 18.3333 4 18.3333H7.33333C7.702 18.3333 8 18.632 8 19Z" fill="#3D6945"/>
</g>
<defs>
<clipPath id="clip0_141_5646">
<rect width="20" height="30" fill="white"/>
</clipPath>
</defs>
</svg>
