<svg width="47" height="92" viewBox="0 0 47 92" fill="none" xmlns="http://www.w3.org/2000/svg">
<path d="M46.1879 12.7964C46.1879 14.4326 44.8518 15.7604 43.202 15.7604C41.5536 15.7604 40.2159 14.4341 40.2159 12.7964C40.2159 11.1602 41.5521 9.8324 43.202 9.8324C44.8503 9.8324 46.1879 11.1587 46.1879 12.7964Z" fill="white"/>
<path d="M46.1879 50.8653C46.1879 52.5015 44.8518 53.8293 43.202 53.8293C41.5536 53.8293 40.2159 52.503 40.2159 50.8653C40.2159 49.2291 41.5521 47.9012 43.202 47.9012C44.8503 47.9028 46.1879 49.2291 46.1879 50.8653Z" fill="white"/>
<path d="M46.1879 88.9357C46.1879 90.5719 44.8518 91.8997 43.202 91.8997C41.5536 91.8997 40.2159 90.5734 40.2159 88.9357C40.2159 87.2995 41.5521 85.9717 43.202 85.9717C44.8503 85.9717 46.1879 87.298 46.1879 88.9357Z" fill="white"/>
<path d="M6.30486 12.7964C6.30486 14.4326 4.96876 15.7604 3.3189 15.7604C1.67056 15.7604 0.332886 14.4341 0.332886 12.7964C0.332886 11.1602 1.66903 9.8324 3.3189 9.8324C4.96723 9.8324 6.30486 11.1587 6.30486 12.7964Z" fill="white"/>
<path d="M6.30486 50.8653C6.30486 52.5015 4.96876 53.8293 3.3189 53.8293C1.67056 53.8293 0.332886 52.503 0.332886 50.8653C0.332886 49.2291 1.66903 47.9012 3.3189 47.9012C4.96723 47.9028 6.30486 49.2291 6.30486 50.8653Z" fill="white"/>
<path d="M6.30486 88.9357C6.30486 90.5719 4.96876 91.8997 3.3189 91.8997C1.67056 91.8997 0.332886 90.5734 0.332886 88.9357C0.332886 87.2995 1.66903 85.9717 3.3189 85.9717C4.96723 85.9717 6.30486 87.298 6.30486 88.9357Z" fill="white"/>
</svg>
