<svg width="33" height="32" viewBox="0 0 33 32" fill="none" xmlns="http://www.w3.org/2000/svg">
<path fill-rule="evenodd" clip-rule="evenodd" d="M32.0267 15.6727C32.0267 24.2488 25.0232 31.2023 16.3836 31.2023C7.744 31.2023 0.740479 24.2488 0.740479 15.6727C0.740479 7.09665 7.744 0.144654 16.3836 0.144654C25.0232 0.143134 32.0267 7.09665 32.0267 15.6727Z" fill="#F4CB17"/>
<path fill-rule="evenodd" clip-rule="evenodd" d="M17.6433 12.3122V10.9616C17.6433 10.3144 18.0826 10.1594 18.3948 10.1594C18.6917 10.1594 20.2926 10.1594 20.2926 10.1594V7.27747H17.6723C14.769 7.27747 14.117 9.41502 14.117 10.793V12.3122H12.4304V14.3373V15.6743H14.1308C14.1308 19.4845 14.1308 24.0695 14.1308 24.0695H17.5162C17.5162 24.0695 17.5162 19.4283 17.5162 15.6743H20.0232L20.1365 14.3525L20.3339 12.3137L17.6433 12.3122Z" fill="#39642F"/>
</svg>
