<svg width="1256" height="474" viewBox="0 0 1256 474" fill="none" xmlns="http://www.w3.org/2000/svg">
<mask id="mask0_141_4520" style="mask-type:luminance" maskUnits="userSpaceOnUse" x="0" y="0" width="1256" height="474">
<path d="M1255.5 0H0.5V474H1255.5V0Z" fill="white"/>
</mask>
<g mask="url(#mask0_141_4520)">
<path d="M43.6634 -18.9059L0.327637 -19.0221L0.210626 23.9964L43.5464 24.1126L43.6634 -18.9059Z" fill="#426F40"/>
<path d="M86.9988 -18.7883L43.6631 -18.9045L43.5462 24.1125L86.882 24.2288L86.9988 -18.7883Z" fill="#39642F"/>
<path d="M130.339 -18.6625L87.0015 -18.783L86.8801 24.2341L130.217 24.3545L130.339 -18.6625Z" fill="#426F40"/>
<path d="M173.672 -18.5576L130.336 -18.6738L130.22 24.3447L173.555 24.461L173.672 -18.5576Z" fill="#39642F"/>
<path d="M217.009 -18.4411L173.673 -18.5573L173.556 24.4598L216.892 24.5759L217.009 -18.4411Z" fill="#426F40"/>
<path d="M260.346 -18.3011L217.01 -18.4216L216.889 24.5954L260.225 24.716L260.346 -18.3011Z" fill="#39642F"/>
<path d="M303.682 -18.2054L260.346 -18.3215L260.229 24.6955L303.565 24.8116L303.682 -18.2054Z" fill="#426F40"/>
<path d="M347.019 -18.0617L303.684 -18.1823L303.562 24.8348L346.898 24.9553L347.019 -18.0617Z" fill="#39642F"/>
<path d="M390.354 -17.9761L347.018 -18.0923L346.901 24.9247L390.237 25.0409L390.354 -17.9761Z" fill="#426F40"/>
<path d="M433.691 -17.8594L390.354 -17.9757L390.237 25.0413L433.574 25.1576L433.691 -17.8594Z" fill="#39642F"/>
<path d="M477.029 -17.7021L433.694 -17.8225L433.572 25.196L476.908 25.3165L477.029 -17.7021Z" fill="#426F40"/>
<path d="M520.364 -17.626L477.027 -17.7423L476.91 25.2747L520.248 25.391L520.364 -17.626Z" fill="#39642F"/>
<path d="M563.699 -17.5112L520.363 -17.6273L520.246 25.3897L563.582 25.5059L563.699 -17.5112Z" fill="#426F40"/>
<path d="M607.036 -17.3945L563.7 -17.5107L563.584 25.5063L606.919 25.6225L607.036 -17.3945Z" fill="#39642F"/>
<path d="M650.376 -17.2201L607.039 -17.3406L606.917 25.6764L650.255 25.7969L650.376 -17.2201Z" fill="#426F40"/>
<path d="M693.708 -17.1606L650.372 -17.2769L650.255 25.7417L693.591 25.8579L693.708 -17.1606Z" fill="#39642F"/>
<path d="M737.046 -17.0463L693.71 -17.1625L693.593 25.8561L736.929 25.9722L737.046 -17.0463Z" fill="#426F40"/>
<path d="M780.383 -16.8603L737.047 -16.9808L736.926 26.0377L780.262 26.1583L780.383 -16.8603Z" fill="#39642F"/>
<path d="M823.718 -16.8132L780.382 -16.9293L780.265 26.0892L823.601 26.2054L823.718 -16.8132Z" fill="#426F40"/>
<path d="M867.054 -16.6861L823.717 -16.8024L823.6 26.2147L866.938 26.3309L867.054 -16.6861Z" fill="#39642F"/>
<path d="M910.394 -16.513L867.057 -16.6334L866.936 26.3836L910.273 26.5041L910.394 -16.513Z" fill="#426F40"/>
<path d="M953.727 -16.4517L910.391 -16.568L910.274 26.449L953.61 26.5653L953.727 -16.4517Z" fill="#39642F"/>
<path d="M997.066 -16.2613L953.729 -16.3817L953.608 26.6368L996.945 26.7573L997.066 -16.2613Z" fill="#426F40"/>
<path d="M1040.4 -16.2331L997.064 -16.3494L996.948 26.6692L1040.28 26.7854L1040.4 -16.2331Z" fill="#39642F"/>
<path d="M1083.74 -16.1166L1040.4 -16.2328L1040.28 26.7842L1083.62 26.9004L1083.74 -16.1166Z" fill="#426F40"/>
<path d="M1127.07 -15.996L1083.74 -16.1123L1083.62 26.9062L1126.96 27.0225L1127.07 -15.996Z" fill="#39642F"/>
<path d="M1170.41 -15.8848L1127.07 -16.001L1126.96 27.016L1170.29 27.1322L1170.41 -15.8848Z" fill="#426F40"/>
<path d="M1213.75 -15.6603L1170.41 -15.7809L1170.29 27.2361L1213.63 27.3567L1213.75 -15.6603Z" fill="#39642F"/>
<path d="M1257.08 -15.6517L1213.75 -15.7678L1213.63 27.2492L1256.96 27.3653L1257.08 -15.6517Z" fill="#426F40"/>
<path d="M43.5467 22.8515L0.210938 22.731L0.0897194 65.7495L43.4255 65.8701L43.5467 22.8515Z" fill="#39642F"/>
<path d="M86.8846 22.9628L43.5488 22.8467L43.4318 65.8637L86.7676 65.9799L86.8846 22.9628Z" fill="#426F40"/>
<path d="M130.223 23.0794L86.886 22.9631L86.7691 65.9802L130.106 66.0964L130.223 23.0794Z" fill="#39642F"/>
<path d="M173.558 23.1956L130.222 23.0795L130.105 66.0965L173.441 66.2126L173.558 23.1956Z" fill="#426F40"/>
<path d="M216.893 23.3316L173.558 23.2111L173.436 66.2281L216.772 66.3487L216.893 23.3316Z" fill="#39642F"/>
<path d="M260.233 23.4272L216.896 23.311L216.779 66.3296L260.116 66.4457L260.233 23.4272Z" fill="#426F40"/>
<path d="M303.567 23.544L260.231 23.4277L260.114 66.4463L303.45 66.5625L303.567 23.544Z" fill="#39642F"/>
<path d="M346.901 23.6926L303.566 23.5721L303.444 66.5907L346.78 66.7111L346.901 23.6926Z" fill="#426F40"/>
<path d="M390.242 23.7772L346.905 23.6609L346.788 66.6794L390.125 66.7957L390.242 23.7772Z" fill="#39642F"/>
<path d="M433.577 23.8921L390.241 23.776L390.124 66.7945L433.46 66.9107L433.577 23.8921Z" fill="#426F40"/>
<path d="M476.914 24.0088L433.577 23.8926L433.46 66.9096L476.797 67.0259L476.914 24.0088Z" fill="#39642F"/>
<path d="M520.25 24.1253L476.915 24.0092L476.798 67.0262L520.133 67.1423L520.25 24.1253Z" fill="#426F40"/>
<path d="M563.586 24.2424L520.25 24.1261L520.133 67.1431L563.469 67.2594L563.586 24.2424Z" fill="#39642F"/>
<path d="M606.922 24.4111L563.585 24.2906L563.463 67.3077L606.801 67.4281L606.922 24.4111Z" fill="#426F40"/>
<path d="M650.26 24.4738L606.923 24.3575L606.806 67.3746L650.144 67.4908L650.26 24.4738Z" fill="#39642F"/>
<path d="M693.596 24.5903L650.26 24.4741L650.143 67.4927L693.479 67.6088L693.596 24.5903Z" fill="#426F40"/>
<path d="M736.929 24.771L693.593 24.6504L693.472 67.6689L736.808 67.7895L736.929 24.771Z" fill="#39642F"/>
<path d="M780.267 24.8245L736.931 24.7084L736.814 67.7254L780.15 67.8415L780.267 24.8245Z" fill="#426F40"/>
<path d="M823.604 24.9387L780.269 24.8224L780.152 67.8394L823.488 67.9557L823.604 24.9387Z" fill="#39642F"/>
<path d="M866.942 25.0551L823.605 24.939L823.488 67.956L866.825 68.0721L866.942 25.0551Z" fill="#426F40"/>
<path d="M910.274 25.2529L866.938 25.1323L866.817 68.1493L910.153 68.2699L910.274 25.2529Z" fill="#39642F"/>
<path d="M953.613 25.2999L910.278 25.1837L910.161 68.2007L953.496 68.3169L953.613 25.2999Z" fill="#426F40"/>
<path d="M996.948 25.4922L953.612 25.3716L953.491 68.3886L996.826 68.5092L996.948 25.4922Z" fill="#39642F"/>
<path d="M1040.29 25.5201L996.95 25.4039L996.833 68.421L1040.17 68.5371L1040.29 25.5201Z" fill="#426F40"/>
<path d="M1083.62 25.6352L1040.29 25.5189L1040.17 68.5359L1083.51 68.6522L1083.62 25.6352Z" fill="#39642F"/>
<path d="M1126.96 25.8519L1083.62 25.7314L1083.5 68.75L1126.84 68.8704L1126.96 25.8519Z" fill="#426F40"/>
<path d="M1170.3 25.8725L1126.96 25.7562L1126.84 68.7733L1170.18 68.8895L1170.3 25.8725Z" fill="#39642F"/>
<path d="M1213.63 25.9849L1170.3 25.8688L1170.18 68.8858L1213.52 69.0019L1213.63 25.9849Z" fill="#426F40"/>
<path d="M1256.97 26.2137L1213.63 26.0929L1213.51 69.1114L1256.85 69.2322L1256.97 26.2137Z" fill="#39642F"/>
<path d="M43.433 65.8644L0.0957031 65.7483L-0.0213034 108.765L43.316 108.881L43.433 65.8644Z" fill="#426F40"/>
<path d="M86.7686 65.9811L43.4329 65.8649L43.316 108.882L86.6517 108.998L86.7686 65.9811Z" fill="#39642F"/>
<path d="M130.101 66.1079L86.7634 65.9874L86.6421 109.004L129.979 109.125L130.101 66.1079Z" fill="#426F40"/>
<path d="M173.442 66.2128L130.104 66.0966L129.988 109.115L173.325 109.231L173.442 66.2128Z" fill="#39642F"/>
<path d="M216.773 66.3488L173.437 66.2284L173.315 109.247L216.651 109.367L216.773 66.3488Z" fill="#426F40"/>
<path d="M260.114 66.4494L216.776 66.3331L216.659 109.35L259.997 109.466L260.114 66.4494Z" fill="#39642F"/>
<path d="M303.444 66.5882L260.108 66.4678L259.987 109.485L303.323 109.605L303.444 66.5882Z" fill="#426F40"/>
<path d="M346.787 66.6777L303.451 66.5614L303.334 109.578L346.67 109.695L346.787 66.6777Z" fill="#39642F"/>
<path d="M390.124 66.7955L346.787 66.6793L346.67 109.696L390.007 109.812L390.124 66.7955Z" fill="#426F40"/>
<path d="M433.459 66.9109L390.123 66.7947L390.006 109.812L433.342 109.928L433.459 66.9109Z" fill="#39642F"/>
<path d="M476.792 67.0684L433.455 66.948L433.334 109.965L476.671 110.085L476.792 67.0684Z" fill="#426F40"/>
<path d="M520.132 67.1426L476.797 67.0264L476.68 110.043L520.016 110.16L520.132 67.1426Z" fill="#39642F"/>
<path d="M563.469 67.2591L520.133 67.1429L520.016 110.16L563.352 110.276L563.469 67.2591Z" fill="#426F40"/>
<path d="M606.805 67.3779L563.468 67.2616L563.351 110.279L606.689 110.395L606.805 67.3779Z" fill="#39642F"/>
<path d="M650.136 67.5487L606.801 67.4282L606.679 110.445L650.015 110.566L650.136 67.5487Z" fill="#426F40"/>
<path d="M693.478 67.6146L650.141 67.4983L650.024 110.515L693.361 110.632L693.478 67.6146Z" fill="#39642F"/>
<path d="M736.809 67.7819L693.473 67.6615L693.352 110.679L736.688 110.799L736.809 67.7819Z" fill="#426F40"/>
<path d="M780.151 67.8406L736.815 67.7244L736.698 110.741L780.034 110.858L780.151 67.8406Z" fill="#39642F"/>
<path d="M823.486 67.9669L780.15 67.8507L780.033 110.868L823.369 110.984L823.486 67.9669Z" fill="#426F40"/>
<path d="M866.819 68.1495L823.481 68.0289L823.36 111.046L866.697 111.167L866.819 68.1495Z" fill="#39642F"/>
<path d="M910.162 68.1888L866.825 68.0726L866.708 111.09L910.045 111.206L910.162 68.1888Z" fill="#426F40"/>
<path d="M953.489 68.3907L910.153 68.2699L910.032 111.287L953.368 111.408L953.489 68.3907Z" fill="#39642F"/>
<path d="M996.831 68.4206L953.496 68.3044L953.379 111.323L996.714 111.439L996.831 68.4206Z" fill="#426F40"/>
<path d="M1040.17 68.541L996.832 68.4247L996.715 111.442L1040.05 111.558L1040.17 68.541Z" fill="#39642F"/>
<path d="M1083.51 68.6537L1040.17 68.5376L1040.05 111.555L1083.39 111.671L1083.51 68.6537Z" fill="#426F40"/>
<path d="M1126.84 68.8709L1083.5 68.7501L1083.38 111.767L1126.71 111.888L1126.84 68.8709Z" fill="#39642F"/>
<path d="M1170.18 68.8854L1126.84 68.7693L1126.73 111.786L1170.06 111.902L1170.18 68.8854Z" fill="#426F40"/>
<path d="M1213.51 69.0021L1170.18 68.8859L1170.06 111.904L1213.4 112.021L1213.51 69.0021Z" fill="#39642F"/>
<path d="M1256.85 69.123L1213.52 69.0068L1213.4 112.024L1256.74 112.14L1256.85 69.123Z" fill="#426F40"/>
<path d="M43.3165 107.617L-0.020752 107.5L-0.137641 150.519L43.1996 150.635L43.3165 107.617Z" fill="#39642F"/>
<path d="M86.6451 107.741L43.3093 107.62L43.188 150.637L86.5237 150.758L86.6451 107.741Z" fill="#426F40"/>
<path d="M129.991 107.849L86.6555 107.733L86.5386 150.752L129.874 150.868L129.991 107.849Z" fill="#39642F"/>
<path d="M173.32 107.982L129.982 107.861L129.861 150.88L173.198 151L173.32 107.982Z" fill="#426F40"/>
<path d="M216.663 108.081L173.327 107.965L173.211 150.983L216.546 151.1L216.663 108.081Z" fill="#39642F"/>
<path d="M260.001 108.199L216.665 108.082L216.548 151.101L259.884 151.217L260.001 108.199Z" fill="#426F40"/>
<path d="M303.336 108.314L260.001 108.198L259.884 151.215L303.22 151.331L303.336 108.314Z" fill="#39642F"/>
<path d="M346.663 108.462L303.327 108.341L303.206 151.358L346.542 151.479L346.663 108.462Z" fill="#426F40"/>
<path d="M390.008 108.546L346.673 108.43L346.556 151.448L389.891 151.565L390.008 108.546Z" fill="#39642F"/>
<path d="M433.338 108.701L390.001 108.581L389.88 151.599L433.217 151.72L433.338 108.701Z" fill="#426F40"/>
<path d="M476.68 108.786L433.344 108.669L433.227 151.686L476.563 151.803L476.68 108.786Z" fill="#39642F"/>
<path d="M520.018 108.896L476.682 108.78L476.565 151.797L519.901 151.913L520.018 108.896Z" fill="#426F40"/>
<path d="M563.346 109.061L520.01 108.941L519.889 151.959L563.225 152.08L563.346 109.061Z" fill="#39642F"/>
<path d="M606.692 109.127L563.356 109.011L563.239 152.028L606.575 152.144L606.692 109.127Z" fill="#426F40"/>
<path d="M650.028 109.246L606.691 109.13L606.574 152.147L649.911 152.263L650.028 109.246Z" fill="#39642F"/>
<path d="M693.356 109.421L650.02 109.3L649.898 152.319L693.234 152.439L693.356 109.421Z" fill="#426F40"/>
<path d="M736.701 109.476L693.365 109.359L693.248 152.378L736.584 152.494L736.701 109.476Z" fill="#39642F"/>
<path d="M780.037 109.592L736.701 109.476L736.584 152.493L779.92 152.609L780.037 109.592Z" fill="#426F40"/>
<path d="M823.372 109.72L780.035 109.604L779.918 152.621L823.255 152.737L823.372 109.72Z" fill="#39642F"/>
<path d="M866.703 109.891L823.367 109.77L823.245 152.787L866.581 152.908L866.703 109.891Z" fill="#426F40"/>
<path d="M910.044 109.953L866.708 109.837L866.591 152.854L909.927 152.97L910.044 109.953Z" fill="#39642F"/>
<path d="M953.374 110.142L910.037 110.021L909.915 153.04L953.253 153.16L953.374 110.142Z" fill="#426F40"/>
<path d="M996.711 110.252L953.375 110.132L953.254 153.15L996.59 153.271L996.711 110.252Z" fill="#39642F"/>
<path d="M1040.05 110.312L996.717 110.196L996.6 153.214L1039.94 153.33L1040.05 110.312Z" fill="#426F40"/>
<path d="M1083.38 110.502L1040.05 110.381L1039.92 153.398L1083.26 153.519L1083.38 110.502Z" fill="#39642F"/>
<path d="M1126.72 110.622L1083.38 110.502L1083.26 153.52L1126.6 153.641L1126.72 110.622Z" fill="#426F40"/>
<path d="M1170.06 110.655L1126.73 110.539L1126.61 153.557L1169.95 153.674L1170.06 110.655Z" fill="#39642F"/>
<path d="M1213.4 110.755L1170.07 110.639L1169.95 153.656L1213.28 153.772L1213.4 110.755Z" fill="#426F40"/>
<path d="M1256.74 110.875L1213.4 110.759L1213.28 153.776L1256.62 153.892L1256.74 110.875Z" fill="#39642F"/>
<path d="M43.1878 150.639L-0.147949 150.518L-0.269289 193.535L43.0665 193.656L43.1878 150.639Z" fill="#426F40"/>
<path d="M86.5379 150.75L43.2021 150.634L43.0853 193.652L86.421 193.768L86.5379 150.75Z" fill="#39642F"/>
<path d="M129.874 150.867L86.5381 150.751L86.4211 193.769L129.757 193.885L129.874 150.867Z" fill="#426F40"/>
<path d="M173.212 150.983L129.874 150.867L129.757 193.884L173.095 194L173.212 150.983Z" fill="#39642F"/>
<path d="M216.534 151.119L173.199 150.999L173.077 194.016L216.413 194.136L216.534 151.119Z" fill="#426F40"/>
<path d="M259.881 151.217L216.546 151.101L216.429 194.118L259.765 194.234L259.881 151.217Z" fill="#39642F"/>
<path d="M303.208 151.358L259.87 151.238L259.749 194.255L303.086 194.375L303.208 151.358Z" fill="#426F40"/>
<path d="M346.543 151.479L303.208 151.358L303.086 194.377L346.422 194.498L346.543 151.479Z" fill="#39642F"/>
<path d="M389.89 151.57L346.555 151.453L346.438 194.471L389.773 194.587L389.89 151.57Z" fill="#426F40"/>
<path d="M433.227 151.681L389.892 151.565L389.775 194.582L433.11 194.698L433.227 151.681Z" fill="#39642F"/>
<path d="M476.55 151.839L433.215 151.718L433.093 194.735L476.429 194.856L476.55 151.839Z" fill="#426F40"/>
<path d="M519.903 151.915L476.566 151.798L476.449 194.817L519.786 194.933L519.903 151.915Z" fill="#39642F"/>
<path d="M563.238 152.029L519.903 151.913L519.786 194.93L563.121 195.046L563.238 152.029Z" fill="#426F40"/>
<path d="M606.56 152.199L563.225 152.078L563.104 195.095L606.439 195.216L606.56 152.199Z" fill="#39642F"/>
<path d="M649.898 152.319L606.561 152.199L606.44 195.217L649.777 195.338L649.898 152.319Z" fill="#426F40"/>
<path d="M693.247 152.378L649.912 152.261L649.795 195.28L693.13 195.396L693.247 152.378Z" fill="#39642F"/>
<path d="M736.581 152.504L693.245 152.388L693.128 195.405L736.464 195.521L736.581 152.504Z" fill="#426F40"/>
<path d="M779.921 152.609L736.583 152.493L736.466 195.51L779.804 195.626L779.921 152.609Z" fill="#39642F"/>
<path d="M823.258 152.726L779.921 152.61L779.804 195.627L823.141 195.743L823.258 152.726Z" fill="#426F40"/>
<path d="M866.579 152.92L823.243 152.799L823.122 195.816L866.458 195.937L866.579 152.92Z" fill="#39642F"/>
<path d="M909.928 152.962L866.593 152.846L866.476 195.863L909.811 195.979L909.928 152.962Z" fill="#426F40"/>
<path d="M953.254 153.159L909.917 153.039L909.795 196.057L953.133 196.178L953.254 153.159Z" fill="#39642F"/>
<path d="M996.602 153.191L953.266 153.075L953.149 196.092L996.485 196.208L996.602 153.191Z" fill="#426F40"/>
<path d="M1039.94 153.308L996.602 153.191L996.485 196.208L1039.82 196.325L1039.94 153.308Z" fill="#39642F"/>
<path d="M1083.28 153.424L1039.94 153.308L1039.82 196.325L1083.16 196.441L1083.28 153.424Z" fill="#426F40"/>
<path d="M1126.6 153.641L1083.26 153.52L1083.14 196.537L1126.48 196.658L1126.6 153.641Z" fill="#39642F"/>
<path d="M1169.95 153.66L1126.61 153.544L1126.49 196.561L1169.83 196.677L1169.95 153.66Z" fill="#426F40"/>
<path d="M1213.28 153.773L1169.95 153.656L1169.83 196.675L1213.17 196.791L1213.28 153.773Z" fill="#39642F"/>
<path d="M1256.62 153.889L1213.29 153.773L1213.17 196.791L1256.5 196.908L1256.62 153.889Z" fill="#426F40"/>
<path d="M43.0704 192.391L-0.265381 192.27L-0.386595 235.287L42.9492 235.408L43.0704 192.391Z" fill="#39642F"/>
<path d="M86.4239 192.503L43.0881 192.387L42.9711 235.405L86.3069 235.522L86.4239 192.503Z" fill="#426F40"/>
<path d="M129.761 192.62L86.4253 192.503L86.3084 235.52L129.644 235.637L129.761 192.62Z" fill="#39642F"/>
<path d="M173.08 192.75L129.745 192.63L129.623 235.647L172.959 235.767L173.08 192.75Z" fill="#426F40"/>
<path d="M216.434 192.852L173.096 192.736L172.98 235.755L216.317 235.871L216.434 192.852Z" fill="#39642F"/>
<path d="M259.771 192.968L216.435 192.852L216.318 235.87L259.654 235.986L259.771 192.968Z" fill="#426F40"/>
<path d="M303.089 193.112L259.753 192.991L259.632 236.01L302.968 236.13L303.089 193.112Z" fill="#39642F"/>
<path d="M346.442 193.2L303.107 193.083L302.99 236.102L346.325 236.218L346.442 193.2Z" fill="#426F40"/>
<path d="M389.763 193.351L346.425 193.231L346.304 236.249L389.641 236.37L389.763 193.351Z" fill="#39642F"/>
<path d="M433.113 193.439L389.777 193.322L389.66 236.341L432.996 236.457L433.113 193.439Z" fill="#426F40"/>
<path d="M476.451 193.549L433.116 193.433L432.999 236.45L476.335 236.567L476.451 193.549Z" fill="#39642F"/>
<path d="M519.789 193.665L476.452 193.548L476.335 236.566L519.672 236.682L519.789 193.665Z" fill="#426F40"/>
<path d="M563.109 193.831L519.772 193.711L519.651 236.728L562.988 236.848L563.109 193.831Z" fill="#39642F"/>
<path d="M606.461 193.9L563.125 193.784L563.008 236.801L606.344 236.917L606.461 193.9Z" fill="#426F40"/>
<path d="M649.779 194.071L606.444 193.95L606.323 236.969L649.658 237.089L649.779 194.071Z" fill="#39642F"/>
<path d="M693.135 194.129L649.797 194.013L649.68 237.032L693.018 237.148L693.135 194.129Z" fill="#426F40"/>
<path d="M736.472 194.246L693.135 194.13L693.018 237.149L736.355 237.265L736.472 194.246Z" fill="#39642F"/>
<path d="M779.807 194.365L736.47 194.249L736.353 237.268L779.69 237.384L779.807 194.365Z" fill="#426F40"/>
<path d="M823.126 194.553L779.791 194.432L779.669 237.451L823.005 237.571L823.126 194.553Z" fill="#39642F"/>
<path d="M866.48 194.596L823.144 194.48L823.027 237.498L866.363 237.614L866.48 194.596Z" fill="#426F40"/>
<path d="M909.813 194.72L866.477 194.604L866.36 237.621L909.696 237.737L909.813 194.72Z" fill="#39642F"/>
<path d="M953.137 194.903L909.801 194.782L909.68 237.801L953.015 237.921L953.137 194.903Z" fill="#426F40"/>
<path d="M996.487 194.958L953.15 194.842L953.033 237.86L996.37 237.976L996.487 194.958Z" fill="#39642F"/>
<path d="M1039.83 195.059L996.489 194.943L996.372 237.96L1039.71 238.076L1039.83 195.059Z" fill="#426F40"/>
<path d="M1083.15 195.261L1039.81 195.141L1039.69 238.159L1083.02 238.28L1083.15 195.261Z" fill="#39642F"/>
<path d="M1126.49 195.304L1083.16 195.188L1083.04 238.206L1126.38 238.323L1126.49 195.304Z" fill="#426F40"/>
<path d="M1169.84 195.409L1126.5 195.293L1126.38 238.31L1169.72 238.426L1169.84 195.409Z" fill="#39642F"/>
<path d="M1213.17 195.528L1169.83 195.412L1169.72 238.429L1213.05 238.545L1213.17 195.528Z" fill="#426F40"/>
<path d="M1256.49 195.753L1213.15 195.632L1213.03 238.649L1256.37 238.77L1256.49 195.753Z" fill="#39642F"/>
<path d="M42.9498 235.408L-0.385986 235.287L-0.507331 278.306L42.8284 278.426L42.9498 235.408Z" fill="#426F40"/>
<path d="M86.306 235.52L42.9702 235.404L42.8533 278.423L86.1891 278.539L86.306 235.52Z" fill="#39642F"/>
<path d="M129.644 235.637L86.3083 235.521L86.1913 278.539L129.527 278.655L129.644 235.637Z" fill="#426F40"/>
<path d="M172.98 235.754L129.644 235.637L129.527 278.654L172.863 278.771L172.98 235.754Z" fill="#39642F"/>
<path d="M216.316 235.871L172.979 235.755L172.862 278.772L216.199 278.888L216.316 235.871Z" fill="#426F40"/>
<path d="M259.632 236.009L216.296 235.888L216.175 278.905L259.511 279.026L259.632 236.009Z" fill="#39642F"/>
<path d="M302.97 236.129L259.633 236.008L259.511 279.027L302.849 279.147L302.97 236.129Z" fill="#426F40"/>
<path d="M346.323 236.222L302.986 236.106L302.869 279.123L346.206 279.239L346.323 236.222Z" fill="#39642F"/>
<path d="M389.641 236.37L346.306 236.249L346.184 279.266L389.52 279.387L389.641 236.37Z" fill="#426F40"/>
<path d="M432.998 236.452L389.66 236.335L389.544 279.352L432.881 279.469L432.998 236.452Z" fill="#39642F"/>
<path d="M476.334 236.567L432.998 236.451L432.881 279.469L476.217 279.585L476.334 236.567Z" fill="#426F40"/>
<path d="M519.67 236.683L476.334 236.567L476.218 279.586L519.553 279.702L519.67 236.683Z" fill="#39642F"/>
<path d="M562.988 236.848L519.651 236.728L519.53 279.747L562.867 279.867L562.988 236.848Z" fill="#426F40"/>
<path d="M606.323 236.969L562.987 236.848L562.866 279.867L606.201 279.988L606.323 236.969Z" fill="#39642F"/>
<path d="M649.673 237.047L606.338 236.931L606.221 279.948L649.556 280.064L649.673 237.047Z" fill="#426F40"/>
<path d="M692.999 237.203L649.661 237.082L649.54 280.099L692.877 280.22L692.999 237.203Z" fill="#39642F"/>
<path d="M736.352 237.272L693.015 237.156L692.898 280.173L736.235 280.289L736.352 237.272Z" fill="#426F40"/>
<path d="M779.689 237.38L736.353 237.264L736.236 280.281L779.572 280.397L779.689 237.38Z" fill="#39642F"/>
<path d="M823.007 237.57L779.67 237.449L779.548 280.466L822.885 280.587L823.007 237.57Z" fill="#426F40"/>
<path d="M866.361 237.616L823.026 237.5L822.909 280.517L866.244 280.633L866.361 237.616Z" fill="#39642F"/>
<path d="M909.698 237.728L866.363 237.612L866.246 280.629L909.581 280.745L909.698 237.728Z" fill="#426F40"/>
<path d="M953.014 237.93L909.677 237.809L909.556 280.826L952.893 280.947L953.014 237.93Z" fill="#39642F"/>
<path d="M996.373 237.961L953.036 237.845L952.919 280.862L996.256 280.978L996.373 237.961Z" fill="#426F40"/>
<path d="M1039.69 238.17L996.35 238.05L996.229 281.068L1039.57 281.189L1039.69 238.17Z" fill="#39642F"/>
<path d="M1083.04 238.209L1039.7 238.093L1039.59 281.11L1082.92 281.226L1083.04 238.209Z" fill="#426F40"/>
<path d="M1126.36 238.41L1083.02 238.289L1082.9 281.306L1126.24 281.427L1126.36 238.41Z" fill="#39642F"/>
<path d="M1169.71 238.438L1126.38 238.322L1126.26 281.339L1169.6 281.455L1169.71 238.438Z" fill="#426F40"/>
<path d="M1213.03 238.651L1169.7 238.53L1169.57 281.547L1212.91 281.668L1213.03 238.651Z" fill="#39642F"/>
<path d="M1256.37 238.769L1213.03 238.649L1212.91 281.668L1256.25 281.788L1256.37 238.769Z" fill="#426F40"/>
<path d="M42.8341 277.161L-0.503174 277.04L-0.624392 320.059L42.7129 320.179L42.8341 277.161Z" fill="#39642F"/>
<path d="M86.1895 277.274L42.8538 277.158L42.7367 320.177L86.0725 320.293L86.1895 277.274Z" fill="#426F40"/>
<path d="M129.529 277.389L86.1936 277.272L86.0767 320.289L129.412 320.406L129.529 277.389Z" fill="#39642F"/>
<path d="M172.843 277.521L129.507 277.4L129.385 320.417L172.721 320.538L172.843 277.521Z" fill="#426F40"/>
<path d="M216.202 277.622L172.867 277.506L172.75 320.524L216.086 320.64L216.202 277.622Z" fill="#39642F"/>
<path d="M259.514 277.761L216.178 277.641L216.057 320.66L259.393 320.78L259.514 277.761Z" fill="#426F40"/>
<path d="M302.876 277.854L259.54 277.737L259.423 320.756L302.759 320.872L302.876 277.854Z" fill="#39642F"/>
<path d="M346.208 277.975L302.872 277.859L302.755 320.877L346.091 320.993L346.208 277.975Z" fill="#426F40"/>
<path d="M389.523 278.121L346.188 278.001L346.066 321.018L389.402 321.138L389.523 278.121Z" fill="#39642F"/>
<path d="M432.884 278.203L389.549 278.087L389.432 321.104L432.767 321.22L432.884 278.203Z" fill="#426F40"/>
<path d="M476.22 278.32L432.884 278.204L432.767 321.221L476.103 321.337L476.22 278.32Z" fill="#39642F"/>
<path d="M519.532 278.481L476.197 278.361L476.075 321.379L519.411 321.5L519.532 278.481Z" fill="#426F40"/>
<path d="M562.895 278.552L519.557 278.435L519.44 321.454L562.778 321.57L562.895 278.552Z" fill="#39642F"/>
<path d="M606.231 278.668L562.895 278.552L562.778 321.57L606.114 321.687L606.231 278.668Z" fill="#426F40"/>
<path d="M649.542 278.841L606.206 278.72L606.085 321.739L649.42 321.86L649.542 278.841Z" fill="#39642F"/>
<path d="M692.904 278.9L649.567 278.784L649.45 321.802L692.787 321.918L692.904 278.9Z" fill="#426F40"/>
<path d="M736.239 279.019L692.903 278.903L692.786 321.921L736.122 322.038L736.239 279.019Z" fill="#39642F"/>
<path d="M779.578 279.133L736.24 279.017L736.123 322.034L779.461 322.15L779.578 279.133Z" fill="#426F40"/>
<path d="M822.888 279.323L779.551 279.202L779.43 322.219L822.767 322.34L822.888 279.323Z" fill="#39642F"/>
<path d="M866.245 279.377L822.91 279.26L822.793 322.277L866.128 322.394L866.245 279.377Z" fill="#426F40"/>
<path d="M909.56 279.562L866.224 279.442L866.103 322.459L909.439 322.579L909.56 279.562Z" fill="#39642F"/>
<path d="M952.921 279.598L909.586 279.482L909.469 322.499L952.804 322.615L952.921 279.598Z" fill="#426F40"/>
<path d="M996.257 279.713L952.921 279.597L952.804 322.614L996.14 322.73L996.257 279.713Z" fill="#39642F"/>
<path d="M1039.57 279.922L996.234 279.801L996.113 322.82L1039.45 322.94L1039.57 279.922Z" fill="#426F40"/>
<path d="M1082.93 279.946L1039.59 279.83L1039.48 322.847L1082.81 322.963L1082.93 279.946Z" fill="#39642F"/>
<path d="M1126.27 280.067L1082.93 279.95L1082.81 322.967L1126.15 323.084L1126.27 280.067Z" fill="#426F40"/>
<path d="M1169.6 280.178L1126.27 280.062L1126.15 323.079L1169.49 323.195L1169.6 280.178Z" fill="#39642F"/>
<path d="M1212.92 280.402L1169.58 280.282L1169.46 323.299L1212.8 323.419L1212.92 280.402Z" fill="#426F40"/>
<path d="M1256.28 280.411L1212.94 280.295L1212.82 323.313L1256.16 323.43L1256.28 280.411Z" fill="#39642F"/>
<path d="M42.7115 320.178L-0.624268 320.058L-0.745608 363.075L42.5902 363.195L42.7115 320.178Z" fill="#426F40"/>
<path d="M86.0773 320.291L42.74 320.174L42.6231 363.191L85.9604 363.308L86.0773 320.291Z" fill="#39642F"/>
<path d="M129.385 320.419L86.0491 320.298L85.9277 363.317L129.263 363.437L129.385 320.419Z" fill="#426F40"/>
<path d="M172.745 320.525L129.408 320.408L129.291 363.427L172.629 363.543L172.745 320.525Z" fill="#39642F"/>
<path d="M216.057 320.658L172.721 320.538L172.6 363.555L215.935 363.675L216.057 320.658Z" fill="#426F40"/>
<path d="M259.422 320.756L216.085 320.639L215.968 363.656L259.305 363.773L259.422 320.756Z" fill="#39642F"/>
<path d="M302.759 320.872L259.423 320.756L259.306 363.773L302.642 363.889L302.759 320.872Z" fill="#426F40"/>
<path d="M346.094 320.988L302.757 320.872L302.64 363.889L345.977 364.005L346.094 320.988Z" fill="#39642F"/>
<path d="M389.403 321.139L346.068 321.018L345.946 364.037L389.282 364.157L389.403 321.139Z" fill="#426F40"/>
<path d="M432.768 321.221L389.432 321.104L389.315 364.123L432.651 364.239L432.768 321.221Z" fill="#39642F"/>
<path d="M476.104 321.337L432.768 321.221L432.651 364.239L475.987 364.355L476.104 321.337Z" fill="#426F40"/>
<path d="M519.44 321.454L476.103 321.338L475.986 364.355L519.323 364.471L519.44 321.454Z" fill="#39642F"/>
<path d="M562.754 321.611L519.418 321.491L519.297 364.509L562.632 364.63L562.754 321.611Z" fill="#426F40"/>
<path d="M606.106 321.7L562.769 321.583L562.652 364.602L605.989 364.718L606.106 321.7Z" fill="#39642F"/>
<path d="M649.421 321.86L606.085 321.739L605.964 364.756L649.299 364.877L649.421 321.86Z" fill="#426F40"/>
<path d="M692.756 321.98L649.42 321.86L649.299 364.877L692.635 364.997L692.756 321.98Z" fill="#39642F"/>
<path d="M736.118 322.044L692.782 321.927L692.665 364.944L736.001 365.061L736.118 322.044Z" fill="#426F40"/>
<path d="M779.43 322.22L736.094 322.099L735.973 365.116L779.308 365.237L779.43 322.22Z" fill="#39642F"/>
<path d="M822.796 322.267L779.459 322.151L779.342 365.168L822.679 365.284L822.796 322.267Z" fill="#426F40"/>
<path d="M866.132 322.382L822.796 322.266L822.679 365.283L866.015 365.399L866.132 322.382Z" fill="#39642F"/>
<path d="M909.467 322.502L866.131 322.385L866.014 365.402L909.35 365.519L909.467 322.502Z" fill="#426F40"/>
<path d="M952.776 322.7L909.439 322.579L909.318 365.596L952.655 365.717L952.776 322.7Z" fill="#39642F"/>
<path d="M996.112 322.82L952.777 322.7L952.655 365.718L995.991 365.839L996.112 322.82Z" fill="#426F40"/>
<path d="M1039.47 322.87L996.134 322.754L996.017 365.771L1039.35 365.887L1039.47 322.87Z" fill="#39642F"/>
<path d="M1082.79 323.048L1039.45 322.928L1039.33 365.945L1082.67 366.065L1082.79 323.048Z" fill="#426F40"/>
<path d="M1126.15 323.08L1082.81 322.964L1082.7 365.982L1126.04 366.099L1126.15 323.08Z" fill="#39642F"/>
<path d="M1169.49 323.201L1126.15 323.085L1126.03 366.103L1169.37 366.219L1169.49 323.201Z" fill="#426F40"/>
<path d="M1212.79 323.421L1169.46 323.301L1169.34 366.319L1212.67 366.44L1212.79 323.421Z" fill="#39642F"/>
<path d="M1256.15 323.441L1212.82 323.325L1212.7 366.342L1256.04 366.458L1256.15 323.441Z" fill="#426F40"/>
<path d="M42.6215 361.928L-0.71582 361.811L-0.832705 404.828L42.5046 404.945L42.6215 361.928Z" fill="#39642F"/>
<path d="M85.9647 362.044L42.6274 361.928L42.5104 404.945L85.8477 405.061L85.9647 362.044Z" fill="#426F40"/>
<path d="M129.266 362.171L85.9304 362.05L85.8092 405.067L129.145 405.188L129.266 362.171Z" fill="#39642F"/>
<path d="M172.63 362.278L129.294 362.161L129.177 405.178L172.513 405.295L172.63 362.278Z" fill="#426F40"/>
<path d="M215.94 362.412L172.604 362.291L172.483 405.308L215.819 405.429L215.94 362.412Z" fill="#39642F"/>
<path d="M259.278 362.532L215.94 362.411L215.819 405.429L259.156 405.549L259.278 362.532Z" fill="#426F40"/>
<path d="M302.64 362.627L259.304 362.51L259.187 405.527L302.523 405.644L302.64 362.627Z" fill="#39642F"/>
<path d="M345.949 362.771L302.614 362.651L302.492 405.668L345.828 405.788L345.949 362.771Z" fill="#426F40"/>
<path d="M389.316 362.858L345.98 362.742L345.864 405.759L389.199 405.875L389.316 362.858Z" fill="#39642F"/>
<path d="M432.654 362.974L389.318 362.857L389.201 405.874L432.537 405.991L432.654 362.974Z" fill="#426F40"/>
<path d="M475.989 363.089L432.654 362.972L432.537 405.989L475.872 406.106L475.989 363.089Z" fill="#39642F"/>
<path d="M519.296 363.252L475.959 363.131L475.838 406.148L519.175 406.269L519.296 363.252Z" fill="#426F40"/>
<path d="M562.663 363.322L519.327 363.206L519.21 406.223L562.546 406.339L562.663 363.322Z" fill="#39642F"/>
<path d="M605.998 363.439L562.662 363.323L562.545 406.34L605.881 406.456L605.998 363.439Z" fill="#426F40"/>
<path d="M649.304 363.611L605.968 363.491L605.847 406.508L649.182 406.628L649.304 363.611Z" fill="#39642F"/>
<path d="M692.674 363.67L649.337 363.554L649.22 406.571L692.557 406.687L692.674 363.67Z" fill="#426F40"/>
<path d="M736.004 363.794L692.668 363.678L692.551 406.695L735.887 406.811L736.004 363.794Z" fill="#39642F"/>
<path d="M779.313 363.973L735.978 363.852L735.856 406.869L779.192 406.99L779.313 363.973Z" fill="#426F40"/>
<path d="M822.681 364.023L779.344 363.907L779.227 406.924L822.564 407.04L822.681 364.023Z" fill="#39642F"/>
<path d="M866.019 364.135L822.682 364.019L822.565 407.036L865.902 407.152L866.019 364.135Z" fill="#426F40"/>
<path d="M909.322 364.333L865.986 364.212L865.865 407.229L909.201 407.35L909.322 364.333Z" fill="#39642F"/>
<path d="M952.691 364.368L909.355 364.252L909.238 407.269L952.574 407.385L952.691 364.368Z" fill="#426F40"/>
<path d="M995.994 364.572L952.658 364.451L952.537 407.47L995.873 407.591L995.994 364.572Z" fill="#39642F"/>
<path d="M1039.36 364.603L996.026 364.487L995.909 407.506L1039.25 407.622L1039.36 364.603Z" fill="#426F40"/>
<path d="M1082.7 364.717L1039.36 364.6L1039.25 407.617L1082.58 407.734L1082.7 364.717Z" fill="#39642F"/>
<path d="M1126.04 364.832L1082.7 364.715L1082.58 407.733L1125.92 407.849L1126.04 364.832Z" fill="#426F40"/>
<path d="M1169.37 364.948L1126.04 364.832L1125.92 407.849L1169.25 407.965L1169.37 364.948Z" fill="#39642F"/>
<path d="M1212.68 365.173L1169.34 365.052L1169.22 408.069L1212.56 408.19L1212.68 365.173Z" fill="#426F40"/>
<path d="M1256.04 365.186L1212.71 365.069L1212.59 408.086L1255.93 408.203L1256.04 365.186Z" fill="#39642F"/>
<path d="M42.5084 404.945L-0.828857 404.828L-0.945864 447.845L42.3914 447.962L42.5084 404.945Z" fill="#426F40"/>
<path d="M85.8468 405.061L42.5095 404.945L42.3926 447.963L85.7299 448.08L85.8468 405.061Z" fill="#39642F"/>
<path d="M129.182 405.178L85.8462 405.061L85.7292 448.078L129.065 448.195L129.182 405.178Z" fill="#426F40"/>
<path d="M172.519 405.293L129.183 405.177L129.066 448.194L172.402 448.31L172.519 405.293Z" fill="#39642F"/>
<path d="M215.82 405.429L172.483 405.308L172.362 448.327L215.699 448.447L215.82 405.429Z" fill="#426F40"/>
<path d="M259.191 405.527L215.853 405.411L215.736 448.428L259.074 448.544L259.191 405.527Z" fill="#39642F"/>
<path d="M302.528 405.643L259.193 405.526L259.076 448.543L302.411 448.66L302.528 405.643Z" fill="#426F40"/>
<path d="M345.864 405.758L302.529 405.641L302.412 448.658L345.747 448.775L345.864 405.758Z" fill="#39642F"/>
<path d="M389.201 405.874L345.865 405.758L345.748 448.775L389.084 448.891L389.201 405.874Z" fill="#426F40"/>
<path d="M432.501 406.03L389.164 405.909L389.043 448.926L432.38 449.047L432.501 406.03Z" fill="#39642F"/>
<path d="M475.872 406.107L432.537 405.991L432.42 449.01L475.755 449.126L475.872 406.107Z" fill="#426F40"/>
<path d="M519.174 406.269L475.837 406.148L475.716 449.167L519.053 449.287L519.174 406.269Z" fill="#39642F"/>
<path d="M562.546 406.339L519.21 406.223L519.093 449.241L562.429 449.358L562.546 406.339Z" fill="#426F40"/>
<path d="M605.883 406.456L562.547 406.339L562.43 449.358L605.766 449.474L605.883 406.456Z" fill="#39642F"/>
<path d="M649.183 406.63L605.847 406.51L605.726 449.528L649.061 449.649L649.183 406.63Z" fill="#426F40"/>
<path d="M692.55 406.697L649.213 406.581L649.096 449.598L692.433 449.714L692.55 406.697Z" fill="#39642F"/>
<path d="M735.892 406.804L692.557 406.688L692.44 449.705L735.775 449.821L735.892 406.804Z" fill="#426F40"/>
<path d="M779.192 406.99L735.856 406.87L735.735 449.888L779.071 450.009L779.192 406.99Z" fill="#39642F"/>
<path d="M822.566 407.036L779.229 406.92L779.112 449.938L822.449 450.054L822.566 407.036Z" fill="#426F40"/>
<path d="M865.9 407.155L822.563 407.039L822.446 450.058L865.783 450.174L865.9 407.155Z" fill="#39642F"/>
<path d="M909.201 407.35L865.865 407.229L865.744 450.248L909.08 450.368L909.201 407.35Z" fill="#426F40"/>
<path d="M952.537 407.47L909.201 407.35L909.08 450.368L952.416 450.489L952.537 407.47Z" fill="#39642F"/>
<path d="M995.905 407.512L952.569 407.396L952.452 450.415L995.788 450.531L995.905 407.512Z" fill="#426F40"/>
<path d="M1039.21 407.71L995.875 407.589L995.753 450.606L1039.09 450.727L1039.21 407.71Z" fill="#39642F"/>
<path d="M1082.58 407.737L1039.25 407.621L1039.13 450.64L1082.46 450.756L1082.58 407.737Z" fill="#426F40"/>
<path d="M1125.91 407.862L1082.58 407.746L1082.46 450.763L1125.8 450.879L1125.91 407.862Z" fill="#39642F"/>
<path d="M1169.22 408.059L1125.89 407.938L1125.77 450.957L1169.1 451.077L1169.22 408.059Z" fill="#426F40"/>
<path d="M1212.59 408.095L1169.25 407.978L1169.13 450.997L1212.47 451.113L1212.59 408.095Z" fill="#39642F"/>
<path d="M1255.93 408.203L1212.59 408.087L1212.47 451.104L1255.81 451.22L1255.93 408.203Z" fill="#426F40"/>
<path d="M42.3951 446.698L-0.940674 446.581L-1.05756 489.598L42.2782 489.715L42.3951 446.698Z" fill="#39642F"/>
<path d="M85.7313 446.814L42.394 446.698L42.277 489.715L85.6143 489.831L85.7313 446.814Z" fill="#426F40"/>
<path d="M129.028 446.941L85.6924 446.82L85.5712 489.837L128.907 489.958L129.028 446.941Z" fill="#39642F"/>
<path d="M172.405 447.046L129.069 446.929L128.952 489.948L172.288 490.064L172.405 447.046Z" fill="#426F40"/>
<path d="M215.702 447.182L172.364 447.061L172.243 490.08L215.58 490.2L215.702 447.182Z" fill="#39642F"/>
<path d="M259.073 447.281L215.737 447.165L215.62 490.182L258.956 490.298L259.073 447.281Z" fill="#426F40"/>
<path d="M302.375 447.421L259.038 447.301L258.917 490.319L302.254 490.44L302.375 447.421Z" fill="#39642F"/>
<path d="M345.745 447.515L302.409 447.399L302.292 490.416L345.628 490.532L345.745 447.515Z" fill="#426F40"/>
<path d="M389.052 447.658L345.717 447.538L345.595 490.555L388.931 490.675L389.052 447.658Z" fill="#39642F"/>
<path d="M432.42 447.747L389.083 447.631L388.966 490.649L432.303 490.765L432.42 447.747Z" fill="#426F40"/>
<path d="M475.721 447.902L432.383 447.781L432.262 490.798L475.599 490.919L475.721 447.902Z" fill="#39642F"/>
<path d="M519.095 447.977L475.76 447.861L475.643 490.88L518.978 490.996L519.095 447.977Z" fill="#426F40"/>
<path d="M562.432 448.091L519.097 447.974L518.98 490.993L562.316 491.109L562.432 448.091Z" fill="#39642F"/>
<path d="M605.769 448.207L562.433 448.091L562.316 491.108L605.652 491.224L605.769 448.207Z" fill="#426F40"/>
<path d="M649.064 448.382L605.728 448.261L605.607 491.278L648.943 491.399L649.064 448.382Z" fill="#39642F"/>
<path d="M692.435 448.45L649.1 448.334L648.983 491.351L692.318 491.467L692.435 448.45Z" fill="#426F40"/>
<path d="M735.744 448.613L692.408 448.492L692.287 491.509L735.623 491.63L735.744 448.613Z" fill="#39642F"/>
<path d="M779.109 448.683L735.771 448.567L735.654 491.584L778.992 491.7L779.109 448.683Z" fill="#426F40"/>
<path d="M822.451 448.789L779.115 448.673L778.998 491.69L822.334 491.806L822.451 448.789Z" fill="#39642F"/>
<path d="M865.747 448.983L822.411 448.862L822.29 491.881L865.626 492.001L865.747 448.983Z" fill="#426F40"/>
<path d="M909.121 449.025L865.785 448.909L865.669 491.926L909.004 492.042L909.121 449.025Z" fill="#39642F"/>
<path d="M952.461 449.137L909.125 449.021L909.008 492.038L952.344 492.154L952.461 449.137Z" fill="#426F40"/>
<path d="M995.756 449.342L952.42 449.222L952.299 492.24L995.635 492.361L995.756 449.342Z" fill="#39642F"/>
<path d="M1039.13 449.37L995.797 449.254L995.679 492.273L1039.02 492.389L1039.13 449.37Z" fill="#426F40"/>
<path d="M1082.47 449.487L1039.13 449.371L1039.02 492.389L1082.35 492.505L1082.47 449.487Z" fill="#39642F"/>
<path d="M1125.8 449.606L1082.47 449.49L1082.35 492.507L1125.69 492.623L1125.8 449.606Z" fill="#426F40"/>
<path d="M1169.1 449.823L1125.77 449.702L1125.64 492.719L1168.98 492.84L1169.1 449.823Z" fill="#39642F"/>
<path d="M1212.47 449.848L1169.14 449.732L1169.02 492.749L1212.36 492.865L1212.47 449.848Z" fill="#426F40"/>
<path d="M1255.77 450.064L1212.44 449.943L1212.32 492.96L1255.65 493.081L1255.77 450.064Z" fill="#39642F"/>
</g>
</svg>
