<svg width="32" height="32" viewBox="0 0 32 32" fill="none" xmlns="http://www.w3.org/2000/svg">
<path fill-rule="evenodd" clip-rule="evenodd" d="M31.9432 15.6727C31.9432 24.2488 24.9397 31.2023 16.3001 31.2023C7.66051 31.2023 0.656982 24.2503 0.656982 15.6727C0.656982 7.09513 7.66051 0.144653 16.3001 0.144653C24.9397 0.144653 31.9432 7.09513 31.9432 15.6727Z" fill="#F4CB17"/>
<path d="M20.4248 25.177H12.1755C9.16961 25.177 6.72546 22.7508 6.72546 19.767V11.5784C6.72546 8.5946 9.17114 6.16687 12.1755 6.16687H20.4248C23.4307 6.16687 25.875 8.5946 25.875 11.5784V19.767C25.875 22.7493 23.4292 25.177 20.4248 25.177ZM12.1755 7.79701C10.0757 7.79701 8.36767 9.49247 8.36767 11.5784V19.767C8.36767 21.8514 10.0772 23.5484 12.1755 23.5484H20.4248C22.5247 23.5484 24.2342 21.8529 24.2342 19.767V11.5784C24.2342 9.49247 22.5262 7.79701 20.4248 7.79701H12.1755Z" fill="#39642F"/>
<path d="M16.3001 20.5403C13.5958 20.5403 11.3965 18.3571 11.3965 15.6727C11.3965 12.9897 13.5958 10.8051 16.3001 10.8051C19.0045 10.8051 21.2039 12.9897 21.2039 15.6727C21.2039 18.3571 19.003 20.5403 16.3001 20.5403ZM16.3001 12.4337C14.5018 12.4337 13.0387 13.8861 13.0387 15.6711C13.0387 17.4562 14.5018 18.9086 16.3001 18.9086C18.0985 18.9086 19.5617 17.4562 19.5617 15.6711C19.5617 13.8861 18.0985 12.4337 16.3001 12.4337Z" fill="#39642F"/>
</svg>
