<svg width="90" height="95" viewBox="0 0 90 95" fill="none" xmlns="http://www.w3.org/2000/svg">
<g id="Frame 33">
<rect width="90" height="95" rx="45" fill="#FFD836" fill-opacity="0.46"/>
<path id="Vector" d="M69.7254 40.8167L66.625 37.597V29.0759C66.625 23.9954 62.8128 19.8638 58.125 19.8638H36.875C32.1873 19.8638 28.375 23.9954 28.375 29.0759V37.597L25.2746 40.8144C23.1943 42.9746 22 46.0054 22 49.1283V63.6212C22 69.9706 26.7664 75.1363 32.625 75.1363H62.375C68.2336 75.1363 73 69.9706 73 63.6212V49.1283C73 46.0054 71.8057 42.9746 69.7254 40.8167ZM36.875 24.4698H58.125C60.4689 24.4698 62.375 26.5356 62.375 29.0759V48.0574L52.0071 59.2938C49.5995 61.9032 45.4005 61.9032 42.9929 59.2938L32.625 48.0574V29.0759C32.625 26.5356 34.5311 24.4698 36.875 24.4698ZM68.75 63.6212C68.75 67.4304 65.8898 70.5303 62.375 70.5303H32.625C29.1102 70.5303 26.25 67.4304 26.25 63.6212V49.1283C26.25 48.6792 26.2968 48.2347 26.3754 47.7994L39.9881 62.5526C41.992 64.7267 44.661 65.9265 47.5 65.9265C50.339 65.9265 53.008 64.7267 55.0119 62.5526L68.6246 47.7994C68.7033 48.2347 68.75 48.6815 68.75 49.1283V63.6212ZM37.5529 41.8254C36.6944 40.9595 36.6434 39.5016 37.4424 38.5712C38.2435 37.6385 39.5907 37.5901 40.445 38.4515L44.3784 42.415C44.95 43.0322 45.7936 43.0345 46.3143 42.4702L54.5231 33.8938C55.3689 33.0094 56.714 33.0394 57.5279 33.9514C58.3439 34.8657 58.3184 36.3258 57.4748 37.2078L49.2914 45.7567C48.2204 46.9174 46.803 47.4977 45.3835 47.4977C43.9534 47.4977 42.519 46.9082 41.4289 45.729L37.5529 41.8231V41.8254Z" fill="#3D6945"/>
</g>
</svg>
