<svg width="815" height="356" viewBox="0 0 815 356" fill="none" xmlns="http://www.w3.org/2000/svg">
<mask id="mask0_141_4395" style="mask-type:luminance" maskUnits="userSpaceOnUse" x="0" y="0" width="815" height="356">
<path d="M814.038 0H0.5V356H814.038V0Z" fill="white"/>
</mask>
<g mask="url(#mask0_141_4395)">
<path d="M627.358 378.046L-267.732 63.0361L-274.45 88.2863L620.64 403.296L627.358 378.046Z" fill="white"/>
<path d="M13.2884 189.559L-79.2188 537.247" stroke="white" stroke-width="0.82" stroke-miterlimit="10"/>
<path d="M48.8013 202.057L-43.7058 549.746" stroke="white" stroke-width="0.82" stroke-miterlimit="10"/>
<path d="M84.3153 214.555L-8.19189 562.244" stroke="white" stroke-width="0.82" stroke-miterlimit="10"/>
<path d="M119.829 227.053L27.322 574.741" stroke="white" stroke-width="0.82" stroke-miterlimit="10"/>
<path d="M155.342 239.552L62.835 587.24" stroke="white" stroke-width="0.82" stroke-miterlimit="10"/>
<path d="M190.856 252.049L98.3489 599.738" stroke="white" stroke-width="0.82" stroke-miterlimit="10"/>
<path d="M226.369 264.547L133.862 612.235" stroke="white" stroke-width="0.82" stroke-miterlimit="10"/>
<path d="M261.883 277.046L169.375 624.734" stroke="white" stroke-width="0.82" stroke-miterlimit="10"/>
<path d="M297.396 289.543L204.888 637.232" stroke="white" stroke-width="0.82" stroke-miterlimit="10"/>
<path d="M332.909 302.041L240.402 649.73" stroke="white" stroke-width="0.82" stroke-miterlimit="10"/>
<path d="M368.423 314.54L275.916 662.229" stroke="white" stroke-width="0.82" stroke-miterlimit="10"/>
<path d="M403.936 327.037L311.429 674.726" stroke="white" stroke-width="0.82" stroke-miterlimit="10"/>
<path d="M439.45 339.535L346.943 687.224" stroke="white" stroke-width="0.82" stroke-miterlimit="10"/>
<path d="M474.963 352.033L382.456 699.722" stroke="white" stroke-width="0.82" stroke-miterlimit="10"/>
<path d="M611.933 434.02L-282.171 119.364" stroke="white" stroke-width="0.82" stroke-miterlimit="10"/>
<path d="M601.066 474.863L-293.038 160.207" stroke="white" stroke-width="0.82" stroke-miterlimit="10"/>
<path d="M590.199 515.707L-303.906 201.051" stroke="white" stroke-width="0.82" stroke-miterlimit="10"/>
<path d="M579.332 556.551L-314.772 241.895" stroke="white" stroke-width="0.82" stroke-miterlimit="10"/>
<path d="M568.465 597.394L-325.639 282.738" stroke="white" stroke-width="0.82" stroke-miterlimit="10"/>
<path d="M557.598 638.238L-336.507 323.582" stroke="white" stroke-width="0.82" stroke-miterlimit="10"/>
</g>
</svg>
