<svg width="39" height="39" viewBox="0 0 39 39" fill="none" xmlns="http://www.w3.org/2000/svg">
<g clip-path="url(#clip0_141_5788)">
<path d="M11.1492 10.0083L25.5727 28.8664H27.7827L13.5233 10.0083H11.1492Z" fill="black"/>
<path d="M19.5 0C8.73112 0 0 8.73112 0 19.5C0 30.2689 8.73112 39 19.5 39C30.2689 39 39 30.2689 39 19.5C39 8.73112 30.2689 0 19.5 0ZM24.4774 31.252L18.1886 23.0376L11.0029 31.252H7.00863L16.3247 20.6018L6.5 7.748H14.7257L20.4035 15.2571L26.9734 7.748H30.9628L22.2511 17.7027L32.5 31.2504L24.4774 31.252Z" fill="white"/>
</g>
<defs>
<clipPath id="clip0_141_5788">
<rect width="39" height="39" fill="white"/>
</clipPath>
</defs>
</svg>
